<svg xmlns="http://www.w3.org/2000/svg" width="24" height="24" fill="none" viewBox="0 0 24 24">
  <path fill="#000" fill-rule="evenodd" d="M23.04 24H.96a.959.959 0 0 1-.96-.96V.96C0 .429.429 0 .96 0h10.8a.24.24 0 0 1 .24.24v1.68a.24.24 0 0 1-.24.24h-9.6v19.68h19.68v-9.6a.24.24 0 0 1 .24-.24h1.68a.24.24 0 0 1 .24.24v10.8c0 .531-.429.96-.96.96ZM19.766 2.614 18.2 1.048a.24.24 0 0 1 .141-.408l5.382-.63a.24.24 0 0 1 .267.267l-.63 5.382a.24.24 0 0 1-.408.14l-1.572-1.57-7.686 7.686a.24.24 0 0 1-.339 0l-1.272-1.272a.24.24 0 0 1 0-.34l7.683-7.688Z" clip-rule="evenodd"/>
</svg>
