<svg xmlns="http://www.w3.org/2000/svg" width="25" height="24" fill="none" viewBox="0 0 25 24">
  <path fill="#000" d="m8.76 24-.48-3.84c-.26-.1-.505-.22-.736-.36-.23-.14-.455-.29-.674-.45l-3.57 1.5-3.3-5.7 3.09-2.34c-.02-.14-.03-.275-.03-.406v-.808c0-.13.01-.266.03-.406L0 8.85l3.3-5.7 3.57 1.5c.22-.16.45-.31.69-.45.24-.14.48-.26.72-.36L8.76 0h6.6l.48 3.84c.26.1.505.22.736.36.23.14.455.29.674.45l3.57-1.5 3.3 5.7-3.09 2.34c.02.14.03.275.03.406v.808c0 .13-.02.266-.06.406l3.09 2.34-3.3 5.7-3.54-1.5c-.22.16-.45.31-.69.45-.24.14-.48.26-.72.36L15.36 24h-6.6Zm3.36-7.8c1.16 0 2.15-.41 2.97-1.23.82-.82 1.23-1.81 1.23-2.97 0-1.16-.41-2.15-1.23-2.97-.82-.82-1.81-1.23-2.97-1.23-1.18 0-2.175.41-2.986 1.23-.81.82-1.215 1.81-1.214 2.97 0 1.16.405 2.15 1.214 2.97.81.82 1.805 1.23 2.986 1.23Z"/>
</svg>
