<svg width="100" height="100" viewBox="1 -2 35 35" xmlns="http://www.w3.org/2000/svg">
    <g fill="none" fill-rule="evenodd">
        <path fill="#3e8ca3" d="M2,29.14l9.86-16.87c1.86,3.34,4.56,7.62,3.34,11.57a7.61,7.61,0,0,1-2.61,3.68,7.78,7.78,0,0,1-5,1.61c-1.48,0-3,0-4.47,0A4.5,4.5,0,0,0,2,29.14Z"></path>
        <path fill="#3e8ca3" d="M12.86,10.43l5.71-10L35.12,29.14H31a13.92,13.92,0,0,1-8.44-3.54,18.23,18.23,0,0,1-3.44-4.5c-.55-.92-1.08-1.85-1.61-2.79-1.25-2.21-2.56-4.39-3.85-6.58Z"></path>
    </g>
</svg>